<svg width="1000" height="97" viewBox="0 0 1000 97" version="1.1" xmlns="http://www.w3.org/2000/svg" xml:space="preserve" style="fill-rule:evenodd;clip-rule:evenodd;stroke-linejoin:round;stroke-miterlimit:2;">
    <path d="M696.129,25.766l-2.922,0c-5.552,-14.609 -15.048,-21.914 -28.488,-21.914c-10.811,0 -19.357,3.92 -25.639,11.761c-6.282,7.84 -9.423,18.773 -9.423,32.797c0,14.025 3.141,24.958 9.423,32.798c6.282,7.84 14.828,11.76 25.639,11.76c7.012,0 12.832,-1.631 17.458,-4.894c4.626,-3.262 8.303,-9.179 11.03,-17.75l2.922,0l-1.461,20.453c-4.481,1.851 -9.034,3.287 -13.66,4.31c-4.626,1.022 -10.056,1.534 -16.289,1.534c-8.668,0 -16.898,-1.802 -24.69,-5.406c-7.791,-3.603 -14.146,-9.033 -19.065,-16.289c-4.918,-7.256 -7.377,-16.094 -7.377,-26.516c0,-10.421 2.459,-19.259 7.377,-26.515c4.919,-7.256 11.274,-12.686 19.065,-16.29c7.792,-3.603 16.022,-5.405 24.69,-5.405c11.395,0 21.378,1.948 29.949,5.844l1.461,19.722Zm-476.991,22.644c0,-10.908 2.654,-19.868 7.962,-26.881c5.308,-7.012 11.395,-12.15 18.262,-15.412c6.866,-3.263 12.977,-5.235 18.334,-5.917l0,2.922c-9.642,2.24 -16.8,7.304 -21.475,15.193c-4.675,7.889 -7.013,17.921 -7.013,30.095c0,12.175 2.338,22.206 7.013,30.095c4.675,7.889 11.833,12.954 21.475,15.194l0,2.922c-5.357,-0.682 -11.468,-2.654 -18.334,-5.917c-6.867,-3.263 -12.954,-8.4 -18.262,-15.413c-5.308,-7.012 -7.962,-15.972 -7.962,-26.881Zm56.245,-48.21c5.357,0.682 11.469,2.654 18.335,5.917c6.866,3.262 12.954,8.4 18.262,15.412c5.308,7.013 7.962,15.973 7.962,26.881c0,10.909 -2.654,19.869 -7.962,26.881c-5.308,7.013 -11.396,12.15 -18.262,15.413c-6.866,3.263 -12.978,5.235 -18.335,5.917l0,-2.922c9.643,-2.24 16.801,-7.305 21.476,-15.194c4.675,-7.889 7.012,-17.92 7.012,-30.095c0,-12.174 -2.337,-22.206 -7.012,-30.095c-4.675,-7.889 -11.833,-12.953 -21.476,-15.193l0,-2.922Zm482.104,0c8.376,0 16.436,1.802 24.178,5.405c7.743,3.604 14.05,9.034 18.919,16.29c4.87,7.256 7.305,16.094 7.305,26.515c0,10.422 -2.435,19.26 -7.305,26.516c-4.869,7.256 -11.176,12.686 -18.919,16.289c-7.742,3.604 -15.802,5.406 -24.178,5.406c-8.376,0 -16.435,-1.802 -24.178,-5.406c-7.743,-3.603 -14.049,-9.033 -18.919,-16.289c-4.87,-7.256 -7.305,-16.094 -7.305,-26.516c0,-10.421 2.435,-19.259 7.305,-26.515c4.87,-7.256 11.176,-12.686 18.919,-16.29c7.743,-3.603 15.802,-5.405 24.178,-5.405Zm-726.808,94.96l-30.679,0l0,-2.922c3.019,-0.195 5.43,-1.023 7.232,-2.484c1.801,-1.461 3.238,-3.238 4.309,-5.332c1.072,-2.094 2.338,-5.089 3.799,-8.985l27.027,-73.776l9.496,0l26.296,73.776c1.656,4.87 3.019,8.352 4.091,10.446c1.071,2.094 2.508,3.677 4.31,4.748c1.801,1.071 4.358,1.607 7.669,1.607c3.604,0 6.38,-0.56 8.328,-1.68c1.948,-1.12 3.311,-2.849 4.09,-5.186c0.779,-2.338 1.266,-5.649 1.461,-9.935l2.922,-54.054c0.195,-4.188 -0.073,-7.426 -0.804,-9.715c-0.73,-2.289 -2.167,-3.969 -4.309,-5.04c-2.143,-1.071 -5.308,-1.753 -9.496,-2.045l0,-2.922l29.949,0l29.802,80.935l27.174,-80.935l30.679,0l0,2.922c-4.188,0.292 -7.353,0.974 -9.496,2.045c-2.143,1.071 -3.579,2.751 -4.31,5.04c-0.73,2.289 -0.998,5.527 -0.803,9.715l2.921,54.054c0.195,4.383 0.658,7.67 1.388,9.862c0.731,2.191 2.094,3.847 4.091,4.967c1.997,1.12 5.04,1.777 9.131,1.972l0,2.922l-43.828,0l0,-2.922c4.188,-0.292 7.353,-0.974 9.496,-2.045c2.143,-1.072 3.579,-2.752 4.31,-5.04c0.73,-2.289 0.998,-5.528 0.803,-9.716l-2.922,-58.436l-28.488,78.159l-10.956,0l-29.219,-78.159l-1.461,58.436c-0.097,4.188 0.219,7.427 0.95,9.716c0.73,2.288 2.094,3.968 4.09,5.04c1.997,1.071 4.943,1.753 8.839,2.045l0,2.922l-73.776,0l0,-2.922c3.701,-0.195 6.355,-1.023 7.962,-2.484c1.607,-1.461 2.41,-3.506 2.41,-6.135c0,-2.241 -0.536,-4.968 -1.607,-8.182l-3.36,-9.496l-35.062,0l-3.214,9.496c-1.072,3.214 -1.607,5.941 -1.607,8.182c0,2.629 0.803,4.674 2.41,6.135c1.607,1.461 4.261,2.289 7.962,2.484l0,2.922Zm337.473,0l-43.828,0l0,-2.922c4.188,-0.292 7.305,-0.974 9.35,-2.045c2.046,-1.072 3.433,-2.727 4.164,-4.967c0.73,-2.241 1.096,-5.503 1.096,-9.789l0,-54.054c0,-4.285 -0.366,-7.548 -1.096,-9.788c-0.731,-2.24 -2.118,-3.896 -4.164,-4.967c-2.045,-1.071 -5.162,-1.753 -9.35,-2.045l0,-2.922l43.828,0c11.59,0 20.088,2.143 25.493,6.428c5.405,4.285 8.108,9.934 8.108,16.947c0,7.596 -2.678,13.562 -8.035,17.896c-5.357,4.334 -13.246,6.842 -23.667,7.524c4.48,1.461 8.327,3.944 11.541,7.45c3.214,3.507 6.964,8.425 11.249,14.756c3.02,4.48 5.576,7.986 7.67,10.518c2.094,2.533 4.456,4.675 7.086,6.428c2.629,1.753 5.551,2.63 8.765,2.63c4.578,0 7.67,-1.242 9.277,-3.725c1.607,-2.484 2.411,-6.842 2.411,-13.076l0,-54.054c0,-4.285 -0.366,-7.548 -1.096,-9.788c-0.73,-2.24 -2.118,-3.896 -4.164,-4.967c-2.045,-1.071 -5.162,-1.753 -9.35,-2.045l0,-2.922l43.828,0l0,2.922c-4.188,0.292 -7.305,0.974 -9.35,2.045c-2.045,1.071 -3.433,2.727 -4.163,4.967c-0.731,2.24 -1.096,5.503 -1.096,9.788l0,54.054c0,4.286 0.365,7.548 1.096,9.789c0.73,2.24 2.118,3.895 4.163,4.967c2.045,1.071 5.162,1.753 9.35,2.045l0,2.922l-43.828,0c-9.155,0 -16.557,-1.461 -22.206,-4.383c-5.648,-2.922 -9.885,-6.404 -12.71,-10.446c-2.824,-4.041 -5.6,-9.082 -8.327,-15.12c-2.337,-5.162 -4.407,-8.887 -6.209,-11.176c-1.801,-2.289 -4.309,-3.433 -7.523,-3.433l-2.922,0l0,24.835c0,4.286 0.365,7.548 1.095,9.789c0.731,2.24 2.119,3.895 4.164,4.967c2.045,1.071 5.162,1.753 9.35,2.045l0,2.922Zm127.83,0l-35.062,0l0,-2.922c4.091,-0.195 7.135,-0.852 9.131,-1.972c1.997,-1.12 3.36,-2.776 4.091,-4.967c0.73,-2.192 1.193,-5.479 1.388,-9.862l2.921,-54.054c0.195,-4.188 -0.073,-7.426 -0.803,-9.715c-0.731,-2.289 -2.167,-3.969 -4.31,-5.04c-2.142,-1.071 -5.308,-1.753 -9.496,-2.045l0,-2.922l29.949,0l29.803,80.935l27.173,-80.935l30.679,0l0,2.922c-4.188,0.292 -7.353,0.974 -9.496,2.045c-2.142,1.071 -3.579,2.751 -4.309,5.04c-0.731,2.289 -0.999,5.527 -0.804,9.715l2.922,54.054c0.195,4.383 0.657,7.67 1.388,9.862c0.73,2.191 2.094,3.847 4.09,4.967c1.997,1.12 5.041,1.777 9.131,1.972l0,2.922l-43.827,0l0,-2.922c4.188,-0.292 7.353,-0.974 9.496,-2.045c2.142,-1.072 3.579,-2.752 4.309,-5.04c0.731,-2.289 0.999,-5.528 0.804,-9.716l-2.922,-58.436l-28.488,78.159l-10.957,0l-29.218,-78.159l-1.461,58.436c-0.098,4.188 0.219,7.427 0.949,9.716c0.731,2.288 2.094,3.968 4.091,5.04c1.996,1.071 4.943,1.753 8.838,2.045l0,2.922Zm360.117,0l-43.827,0l0,-2.922c4.188,-0.292 7.304,-0.974 9.35,-2.045c2.045,-1.072 3.433,-2.727 4.163,-4.967c0.731,-2.241 1.096,-5.503 1.096,-9.789l0,-54.054c0,-4.285 -0.365,-7.548 -1.096,-9.788c-0.73,-2.24 -2.118,-3.896 -4.163,-4.967c-2.046,-1.071 -5.162,-1.753 -9.35,-2.045l0,-2.922l43.827,0c11.59,0 20.088,2.143 25.493,6.428c5.406,4.285 8.109,9.934 8.109,16.947c0,7.596 -2.679,13.562 -8.036,17.896c-5.356,4.334 -13.245,6.842 -23.666,7.524c4.48,1.461 8.327,3.944 11.541,7.45c3.214,3.507 6.964,8.425 11.249,14.756c3.019,4.48 5.576,7.986 7.67,10.518c2.094,2.533 4.456,4.675 7.085,6.428c2.63,1.753 5.552,2.63 8.766,2.63c4.577,0 7.67,-1.242 9.277,-3.725c1.607,-2.484 2.41,-6.842 2.41,-13.076l0,-54.054c0,-4.285 -0.365,-7.548 -1.096,-9.788c-0.73,-2.24 -2.118,-3.896 -4.163,-4.967c-2.046,-1.071 -5.162,-1.753 -9.35,-2.045l0,-2.922l43.827,0l0,2.922c-4.187,0.292 -7.304,0.974 -9.349,2.045c-2.046,1.071 -3.434,2.727 -4.164,4.967c-0.73,2.24 -1.096,5.503 -1.096,9.788l0,27.758l34.332,-32.14c3.993,-3.701 5.99,-6.623 5.99,-8.766c0,-2.143 -1.997,-3.36 -5.99,-3.652l0,-2.922l32.14,0l0,2.922c-3.798,0.389 -7.791,1.704 -11.979,3.944c-4.188,2.24 -8.23,5.065 -12.126,8.474l-29.072,25.858l31.994,34.039c4.09,4.383 8.254,7.938 12.491,10.665c4.236,2.727 8.108,4.285 11.614,4.675l0,2.922l-40.175,0l0,-2.922c3.701,-0.487 5.551,-1.607 5.551,-3.36c0,-1.851 -1.607,-4.383 -4.821,-7.597l-29.949,-30.679l0,24.835c0,4.286 0.366,7.548 1.096,9.789c0.73,2.24 2.118,3.895 4.164,4.967c2.045,1.071 5.162,1.753 9.349,2.045l0,2.922l-43.827,0c-9.155,0 -16.557,-1.461 -22.206,-4.383c-5.649,-2.922 -9.886,-6.404 -12.71,-10.446c-2.825,-4.041 -5.6,-9.082 -8.327,-15.12c-2.338,-5.162 -4.407,-8.887 -6.209,-11.176c-1.802,-2.289 -4.31,-3.433 -7.524,-3.433l-2.922,0l0,24.835c0,4.286 0.365,7.548 1.096,9.789c0.73,2.24 2.118,3.895 4.163,4.967c2.046,1.071 5.162,1.753 9.35,2.045l0,2.922Zm-98.612,-2.192c6.915,0 12.954,-1.753 18.116,-5.259c5.162,-3.506 9.155,-8.595 11.979,-15.266c2.825,-6.672 4.237,-14.683 4.237,-24.033c0,-9.35 -1.412,-17.36 -4.237,-24.032c-2.824,-6.671 -6.817,-11.76 -11.979,-15.266c-5.162,-3.507 -11.201,-5.26 -18.116,-5.26c-6.915,0 -12.953,1.753 -18.115,5.26c-5.162,3.506 -9.155,8.595 -11.98,15.266c-2.824,6.672 -4.236,14.682 -4.236,24.032c0,9.35 1.412,17.361 4.236,24.033c2.825,6.671 6.818,11.76 11.98,15.266c5.162,3.506 11.2,5.259 18.115,5.259Zm-698.904,-31.409l-16.508,-46.019l-15.486,46.019l31.994,0Zm305.186,-14.61c7.889,0 13.514,-1.826 16.874,-5.478c3.36,-3.652 5.04,-8.79 5.04,-15.413c0,-13.83 -6.331,-20.745 -18.992,-20.745c-4.091,0 -7.061,0.536 -8.912,1.607c-1.85,1.072 -3.019,2.654 -3.506,4.748c-0.487,2.094 -0.73,5.333 -0.73,9.715l0,25.566l10.226,0Zm487.948,0c7.889,0 13.513,-1.826 16.873,-5.478c3.36,-3.652 5.04,-8.79 5.04,-15.413c0,-13.83 -6.33,-20.745 -18.992,-20.745c-4.09,0 -7.061,0.536 -8.911,1.607c-1.851,1.072 -3.019,2.654 -3.506,4.748c-0.487,2.094 -0.731,5.333 -0.731,9.715l0,25.566l10.227,0Z" style="fill-rule:nonzero;"></path>
</svg>